<svg width="115" height="115" viewBox="0 0 115 115" fill="none" xmlns="http://www.w3.org/2000/svg">
<circle cx="57.5" cy="57.5" r="57.5" fill="#8BC34B"/>
<g clip-path="url(#clip0_19_3)">
<path fill-rule="evenodd" clip-rule="evenodd" d="M14.5234 29H103V87.022H13V29H14.5234ZM24.6235 58.3342C24.4121 58.3488 24.2 58.3197 24.0003 58.2486C23.8006 58.1775 23.6176 58.066 23.4627 57.921C23.3078 57.776 23.1843 57.6006 23.0998 57.4058C23.0154 57.2109 22.9718 57.0006 22.9718 56.7881C22.9718 56.5757 23.0154 56.3654 23.0998 56.1705C23.1843 55.9757 23.3078 55.8003 23.4627 55.6553C23.6176 55.5103 23.8006 55.3988 24.0003 55.3277C24.2 55.2566 24.4121 55.2275 24.6235 55.2421H42.9341L45.4243 48.9919C45.5503 48.6861 45.771 48.4291 46.0539 48.2587C46.3367 48.0884 46.6667 48.0138 46.9951 48.0459C47.3234 48.078 47.6328 48.2151 47.8775 48.437C48.1222 48.659 48.2893 48.9539 48.354 49.2783L52.1113 63.9675L57.4653 37.079C57.5347 36.7269 57.7238 36.4099 58.0003 36.1821C58.2768 35.9542 58.6236 35.8296 58.9814 35.8296C59.3393 35.8296 59.6861 35.9542 59.9626 36.1821C60.2391 36.4099 60.4282 36.7269 60.4976 37.079L64.8921 53.2371L68.3784 45.5253C68.5027 45.2503 68.7047 45.0179 68.9594 44.8569C69.2141 44.6959 69.5103 44.6134 69.8113 44.6197C70.1123 44.6259 70.4049 44.7207 70.6527 44.8921C70.9006 45.0635 71.0928 45.3041 71.2056 45.584L74.9263 54.706H91.3691C91.5805 54.6913 91.7927 54.7205 91.9924 54.7916C92.1921 54.8626 92.3751 54.9741 92.53 55.1191C92.6849 55.2641 92.8084 55.4395 92.8928 55.6344C92.9773 55.8293 93.0209 56.0395 93.0209 56.252C93.0209 56.4645 92.9773 56.6747 92.8928 56.8696C92.8084 57.0645 92.6849 57.2399 92.53 57.3849C92.3751 57.5299 92.1921 57.6414 91.9924 57.7124C91.7927 57.7835 91.5805 57.8126 91.3691 57.798H73.8936C73.5804 57.8034 73.2729 57.7138 73.0114 57.5407C72.75 57.3677 72.5469 57.1194 72.4287 56.8285L69.6675 50.0422L65.9395 58.3782C65.811 58.6686 65.5958 58.9118 65.3236 59.0744C65.0515 59.237 64.7357 59.3109 64.4199 59.2859C64.1041 59.2609 63.8038 59.1383 63.5604 58.9349C63.317 58.7316 63.1425 58.4575 63.061 58.1506L59.2085 44.0564L53.8032 71.2312C53.733 71.5725 53.5495 71.8798 53.2828 72.1031C53.0161 72.3265 52.6819 72.4527 52.3345 72.4612C51.9871 72.4697 51.6471 72.36 51.3699 72.15C51.0926 71.94 50.8944 71.6421 50.8076 71.3047L46.5156 54.5224L45.4316 57.2545C45.3326 57.5666 45.1375 57.8392 44.8743 58.0332C44.6111 58.2272 44.2934 58.3325 43.9668 58.3342H24.6235ZM16.0396 32.048H99.9605V76.2182H16.0396V32.048ZM53.9497 79.8758H62.0064C62.4143 79.8758 62.8055 80.0383 63.0939 80.3275C63.3824 80.6168 63.5444 81.0091 63.5444 81.4181C63.5444 81.8272 63.3824 82.2195 63.0939 82.5087C62.8055 82.798 62.4143 82.9605 62.0064 82.9605H53.9497C53.5418 82.9605 53.1506 82.798 52.8621 82.5087C52.5737 82.2195 52.4116 81.8272 52.4116 81.4181C52.4116 81.0091 52.5737 80.6168 52.8621 80.3275C53.1506 80.0383 53.5418 79.8758 53.9497 79.8758ZM67.8657 79.8758H69.3306C69.7385 79.8758 70.1297 80.0383 70.4182 80.3275C70.7066 80.6168 70.8687 81.0091 70.8687 81.4181C70.8687 81.8272 70.7066 82.2195 70.4182 82.5087C70.1297 82.798 69.7385 82.9605 69.3306 82.9605H67.8657C67.4578 82.9605 67.0666 82.798 66.7781 82.5087C66.4897 82.2195 66.3276 81.8272 66.3276 81.4181C66.3276 81.0091 66.4897 80.6168 66.7781 80.3275C67.0666 80.0383 67.4578 79.8758 67.8657 79.8758ZM46.6914 79.8758H48.1562C48.5642 79.8758 48.9554 80.0383 49.2438 80.3275C49.5323 80.6168 49.6943 81.0091 49.6943 81.4181C49.6943 81.8272 49.5323 82.2195 49.2438 82.5087C48.9554 82.798 48.5642 82.9605 48.1562 82.9605H46.6914C46.2835 82.9605 45.8923 82.798 45.6038 82.5087C45.3154 82.2195 45.1533 81.8272 45.1533 81.4181C45.1533 81.0091 45.3154 80.6168 45.6038 80.3275C45.8923 80.0383 46.2835 79.8758 46.6914 79.8758Z" fill="black"/>
</g>
<defs>
<clipPath id="clip0_19_3">
<rect width="90" height="58" fill="white" transform="translate(13 29)"/>
</clipPath>
</defs>
</svg>
