<svg width="115" height="115" viewBox="0 0 115 115" fill="none" xmlns="http://www.w3.org/2000/svg">
<circle cx="57.5" cy="57.5" r="57.5" fill="#8BC34B"/>
<g clip-path="url(#clip0_19_5)">
<path fill-rule="evenodd" clip-rule="evenodd" d="M17.8594 26H82.5342C83.5596 26 84.3936 26.8394 84.3936 27.8716V39.1835H80.4492V31.5803C80.4492 30.672 79.7109 29.9289 78.8018 29.9289H21.5918C20.6895 29.9289 19.9512 30.672 19.9512 31.5803V63.4037C19.9512 64.3119 20.6895 65.055 21.5918 65.055H62.7441V72.8647H17.8594C16.834 72.8647 16 72.0252 16 71V27.8716C16 26.8394 16.834 26 17.8594 26ZM79.5742 43.539C79.7656 43.367 80.0391 43.25 80.3057 43.25C80.3604 43.25 80.4219 43.25 80.4766 43.2706H97.5664C98.2227 43.2706 98.8379 43.539 99.2822 43.9862C99.7266 44.4335 99.9932 45.0321 99.9932 45.7133V75.3555H97.833V45.7133C97.833 45.6376 97.8125 45.5757 97.7578 45.5413C97.7168 45.5 97.6621 45.4656 97.5869 45.4656H81.4063V55.0298C81.4063 55.9381 81.0371 56.7775 80.4424 57.3761C79.8477 57.9679 79.0137 58.3394 78.1113 58.3394H68.7871V86.5573C68.7871 86.6124 68.8076 86.695 68.8623 86.7294C68.9033 86.7706 68.958 86.805 69.0332 86.805H97.5869C97.6416 86.805 97.7236 86.7844 97.7578 86.7294C97.7988 86.6881 97.833 86.6124 97.833 86.5573V75.3073H99.9932V86.5573C99.9932 87.2385 99.7266 87.8372 99.2822 88.2844C98.8379 88.7316 98.2432 89 97.5664 89H68.9922C68.3154 89 67.7207 88.7316 67.2764 88.2844C66.832 87.8372 66.5654 87.2385 66.5654 86.5573V57.5069C66.5449 57.4106 66.5244 57.3349 66.5244 57.2385C66.5244 56.9083 66.6816 56.6193 66.8936 56.406L79.4375 43.6216C79.4785 43.5803 79.4922 43.5665 79.5332 43.5459L79.5742 43.539ZM79.2256 55.0229V47.0138L70.2705 56.1445H78.1113C78.4189 56.1445 78.6924 56.0069 78.9043 55.8142C79.0957 55.6216 79.2256 55.3326 79.2256 55.0229ZM43.4736 46.3739L54.9648 44.0688L52.6475 47.5298C56.3662 51.3624 60.4473 52.6904 65.2529 51.1422C60.2422 57.6445 53.4199 57.789 48.0195 54.4381L45.6543 57.9679L43.4736 46.3739ZM58.6289 75.4518C58.6768 78.3899 59.873 81.0183 63.1338 83.0895H37.2598C39.8643 81.1835 41.7715 78.8784 41.7646 75.4518H58.6289ZM50.1934 66.5619C51.5127 66.5619 52.5791 67.6353 52.5791 68.9633C52.5791 70.2913 51.5059 71.3647 50.1934 71.3647C48.874 71.3647 47.8076 70.2913 47.8076 68.9633C47.8076 67.6422 48.8809 66.5619 50.1934 66.5619Z" fill="black"/>
</g>
<defs>
<clipPath id="clip0_19_5">
<rect width="84" height="63" fill="white" transform="translate(16 26)"/>
</clipPath>
</defs>
</svg>
