<svg width="115" height="115" viewBox="0 0 115 115" fill="none" xmlns="http://www.w3.org/2000/svg">
<circle cx="57.5" cy="57.5" r="57.5" fill="#8BC34B"/>
<g clip-path="url(#clip0_19_4)">
<path fill-rule="evenodd" clip-rule="evenodd" d="M59.9793 32.105C58.1962 31.4095 56.3551 31.0464 54.4565 31.0464C51.6011 31.0464 49.2528 31.9602 47.4117 33.7724L31.5242 49.6487L33.1771 51.3167L27.1466 57.3913L17 47.2271L23.0299 41.1952L24.8997 43.0221L40.6998 27.2332C42.8739 25.0733 45.2082 24 47.7013 24C51.8907 24 55.9787 26.6972 59.9793 32.105ZM84.0888 27.6097C85.8158 27.6097 87.4734 27.904 89.0163 28.444L85.0964 32.6877C76.1911 42.3239 86.2409 47.8993 95.0969 41.284L98.5129 38.733C98.8298 39.9431 98.9993 41.2139 98.9993 42.5235C98.9993 50.7607 92.3242 57.438 84.0881 57.438C81.4015 57.438 78.8804 56.7271 76.7036 55.483L69.4619 63.1729C76.2778 69.6993 83.0958 76.2245 89.9125 82.7496L80.6648 91.9993C74.2158 85.2733 67.7695 78.5439 61.3246 71.8139L48.6269 85.2953C47.6626 86.9446 45.8735 88.0533 43.8262 88.0533C40.7572 88.0533 38.2681 85.5643 38.2681 82.494C38.2681 81.167 38.7345 79.9476 39.5106 78.9918L39.5026 78.9838L39.5513 78.9417C39.9524 78.4591 40.4335 78.046 40.9741 77.7216L55.2553 65.4763L37.6475 47.0302L44.9539 39.7228C51.7319 46.2346 57.2339 51.4582 64.0205 57.9606L71.9376 51.1712C70.1999 48.7322 69.1776 45.748 69.1776 42.5242C69.1776 34.2863 75.8528 27.6097 84.0888 27.6097ZM36.1053 30.9163L28.8429 38.1803L27.4509 36.7886L34.7133 29.5239L36.1053 30.9163Z" fill="black"/>
</g>
<defs>
<clipPath id="clip0_19_4">
<rect width="82" height="68" fill="white" transform="translate(17 24)"/>
</clipPath>
</defs>
</svg>
