<svg width="115" height="115" viewBox="0 0 115 115" fill="none" xmlns="http://www.w3.org/2000/svg">
<circle cx="57.5" cy="57.5" r="57.5" fill="#8BC34B"/>
<g clip-path="url(#clip0_19_2)">
<path fill-rule="evenodd" clip-rule="evenodd" d="M26.1049 29.727H39.4937L39.476 29.4953V23.4535C39.476 22.105 40.8704 21 42.5839 21C44.2914 21 45.6918 22.1109 45.6918 23.4535V29.4953L45.674 29.727H68.4751L68.4574 29.4953V23.4535C68.4574 22.105 69.8518 21 71.5594 21C73.267 21 74.6673 22.1109 74.6673 23.4535V29.4953L74.6496 29.727H88.8951C89.5037 29.727 90 30.226 90 30.8379V42.3986C90 43.0105 89.5037 43.5095 88.8951 43.5095H26.1049C25.4963 43.5036 25 43.0046 25 42.3927V30.832C25 30.2201 25.4963 29.727 26.1049 29.727ZM25.2777 46.064H89.7282C89.8818 46.064 90 46.1888 90 46.3373V93.7208C90 93.8693 89.8759 93.9941 89.7282 93.9941H25.2777C25.13 93.9941 25 93.8693 25 93.7208V46.3433C25 46.1888 25.1241 46.064 25.2777 46.064ZM82.4725 52.3434H74.3778C73.8874 52.3434 73.4915 52.7177 73.4915 53.1751V60.7437C73.4915 61.2011 73.8874 61.5754 74.3778 61.5754H82.4784C82.9688 61.5754 83.3706 61.2011 83.3706 60.7437V53.1751C83.3647 52.7177 82.9629 52.3434 82.4725 52.3434ZM32.2321 65.5141H40.3268C40.8172 65.5141 41.219 65.8884 41.219 66.3458V73.9143C41.219 74.3717 40.8172 74.746 40.3268 74.746H32.5098C32.0194 74.746 31.6235 74.3717 31.6235 73.9143V66.0725C31.6235 65.6151 32.0253 65.2408 32.5098 65.2408L32.2321 65.5141ZM32.2321 78.6907H40.3268C40.8172 78.6907 41.219 79.0649 41.219 79.5224V87.0909C41.219 87.5483 40.8172 87.9226 40.3268 87.9226H32.5039C32.0135 87.9226 31.6176 87.5483 31.6176 87.0909V79.5224C31.6176 79.0649 32.0194 78.6907 32.5039 78.6907H32.2321ZM32.2321 52.3434H40.3268C40.8172 52.3434 41.219 52.7177 41.219 53.1751V60.7437C41.219 61.2011 40.8172 61.5754 40.3268 61.5754H32.5039C32.0135 61.5754 31.6176 61.2011 31.6176 60.7437V53.1751C31.6176 52.7177 32.0194 52.3434 32.5039 52.3434H32.2321ZM46.2826 52.3434H54.3832C54.8736 52.3434 55.2695 52.7177 55.2695 53.1751V60.7437C55.2695 61.2011 54.8677 61.5754 54.3832 61.5754H46.2826C45.7922 61.5754 45.3904 61.2011 45.3904 60.7437V53.1751C45.3904 52.7177 45.7922 52.3434 46.2826 52.3434ZM46.2826 65.5141H54.3832C54.8736 65.5141 55.2695 65.8884 55.2695 66.3458V73.9143C55.2695 74.3717 54.8677 74.746 54.3832 74.746H46.2826C45.7922 74.746 45.3904 74.3717 45.3904 73.9143V66.0725C45.3904 65.6151 45.7922 65.2408 46.2826 65.2408V65.5141ZM46.2826 78.6907H54.3832C54.8736 78.6907 55.2695 79.0649 55.2695 79.5224V87.0909C55.2695 87.5483 54.8677 87.9226 54.3832 87.9226H46.2826C45.7922 87.9226 45.3904 87.5483 45.3904 87.0909V79.5224C45.3904 79.0649 45.7922 78.6907 46.2826 78.6907ZM60.3272 52.3434H68.4279C68.9183 52.3434 69.3201 52.7177 69.3201 53.1751V60.7437C69.3201 61.2011 68.9183 61.5754 68.4279 61.5754H60.3272C59.8368 61.5754 59.435 61.2011 59.435 60.7437V53.1751C59.441 52.7177 59.8368 52.3434 60.3272 52.3434ZM60.3272 65.5141H68.4279C68.9183 65.5141 69.3201 65.8884 69.3201 66.3458V73.9143C69.3201 74.3717 68.9183 74.746 68.4279 74.746H60.3272C59.8368 74.746 59.435 74.3717 59.435 73.9143V66.0725C59.435 65.6151 59.8368 65.2408 60.3272 65.2408V65.5141ZM82.4725 65.5141H74.3778C73.8874 65.5141 73.4915 65.8884 73.4915 66.3458V73.9143C73.4915 74.3717 73.8874 74.746 74.3778 74.746H82.4784C82.9688 74.746 83.3706 74.3717 83.3706 73.9143V66.0666C83.3706 65.6091 82.9688 65.2349 82.4784 65.2349L82.4725 65.5141ZM82.4725 78.6907H74.3778C73.8874 78.6907 73.4915 79.0649 73.4915 79.5224V87.0909C73.4915 87.5483 73.8874 87.9226 74.3778 87.9226H82.4784C82.9688 87.9226 83.3706 87.5483 83.3706 87.0909V79.2432C83.3706 78.7857 82.9688 78.4115 82.4784 78.4115L82.4725 78.6907ZM60.3272 78.6907H68.4279C68.9183 78.6907 69.3201 79.0649 69.3201 79.5224V87.0909C69.3201 87.5483 68.9183 87.9226 68.4279 87.9226H60.3272C59.8368 87.9226 59.435 87.5483 59.435 87.0909V79.5224C59.441 79.0649 59.8368 78.6907 60.3272 78.6907ZM29.1419 49.3433H86.4076C86.7148 49.3433 86.963 49.6047 86.963 49.9018V90.1623C86.963 90.4593 86.703 90.7207 86.4076 90.7207H28.5924C28.297 90.7207 28.037 90.4712 28.037 90.1623V50.4543C28.037 49.8424 28.5333 49.3433 29.1419 49.3433ZM71.5594 38.4658C73.267 38.4658 74.6673 37.3549 74.6673 36.0123V29.9765L74.6496 29.7329H68.4751L68.4574 29.9765V36.0123C68.4574 37.3608 69.8518 38.4658 71.5594 38.4658ZM42.5839 38.4658C44.2914 38.4658 45.6918 37.3549 45.6918 36.0123V29.9765L45.674 29.7329H39.4937L39.476 29.9765V36.0123C39.476 37.3608 40.8704 38.4658 42.5839 38.4658Z" fill="black"/>
</g>
<defs>
<clipPath id="clip0_19_2">
<rect width="65" height="73" fill="white" transform="translate(25 21)"/>
</clipPath>
</defs>
</svg>
