<svg width="115" height="115" viewBox="0 0 115 115" fill="none" xmlns="http://www.w3.org/2000/svg">
<circle cx="57.5" cy="57.5" r="57.5" fill="#8BC34B"/>
<g clip-path="url(#clip0_19_7)">
<path d="M61.3123 67.1972C63.4763 66.3118 65.0994 64.6461 65.9882 62.6428C66.8991 60.5898 67.0315 58.1936 66.1648 55.9358V55.9303C65.3036 53.678 63.6033 51.9846 61.5552 51.0715C59.5126 50.1584 57.1167 50.0256 54.8644 50.8944C52.6175 51.7577 50.9282 53.4622 50.0173 55.5152C49.1065 57.5627 48.974 59.9644 49.8407 62.2223V62.2278L49.8517 62.2223C50.2934 63.3733 50.9724 64.4081 51.8281 65.2659C52.6948 66.1347 53.7271 66.8209 54.8644 67.2581C56.1672 67.7561 56.8186 69.217 56.3218 70.523L56.3328 70.5286L48.7421 90.3564C48.2453 91.6679 46.7823 92.3264 45.474 91.8284C45.3967 91.8007 45.3249 91.7675 45.2532 91.7343C36.3375 88.2369 29.6577 81.4745 26.0473 73.3508C22.3927 65.1441 21.8683 55.554 25.3297 46.5227C25.3573 46.4452 25.3904 46.3733 25.4235 46.3014C28.9125 37.3642 35.6585 30.6682 43.7626 27.0491C51.9495 23.3912 61.5221 22.8655 70.5315 26.3352C77.3273 28.9472 82.8423 33.4573 86.7066 39.0243C90.6814 44.7463 92.9062 51.6083 92.989 58.7027V58.7249H93V59.328C93 59.4166 92.9945 59.4996 92.989 59.5826C92.9614 61.5969 92.7626 63.6057 92.3872 65.5924C92.0063 67.6067 91.4322 69.6321 90.6648 71.6464L90.6759 71.6519C88.8983 76.3004 86.1767 80.4563 82.7484 83.8928C79.3202 87.3293 75.1743 90.052 70.5371 91.8394C69.2287 92.3375 67.7658 91.679 67.2689 90.3674L59.6727 70.5341C59.1759 69.2226 59.8328 67.7561 61.1412 67.2581C61.1964 67.2359 61.2516 67.2138 61.3123 67.1972ZM70.6033 64.7125C69.4937 67.2083 67.6498 69.3775 65.2263 70.8661L71.0505 86.0787C74.0757 84.6067 76.8084 82.6477 79.1601 80.2903C82.097 77.3463 84.4211 73.7991 85.9393 69.8368L85.9503 69.8424V69.8368C86.5962 68.1435 87.0875 66.4058 87.4188 64.6516C87.7445 62.925 87.9156 61.2096 87.9432 59.5217C87.9377 59.4553 87.9377 59.3889 87.9377 59.3225V58.7193H87.9487C87.877 52.6874 85.9614 46.8326 82.5552 41.9241C79.2539 37.165 74.5394 33.3189 68.7374 31.0833C61.0142 28.1116 52.8273 28.5543 45.8383 31.6754C38.8935 34.7743 33.1191 40.5074 30.138 48.1441C30.1215 48.205 30.0994 48.2714 30.0773 48.3323C27.1128 56.0741 27.5544 64.2808 30.668 71.2922C33.4614 77.5842 38.4022 82.9189 44.955 86.0953L50.7847 70.8772C49.8573 70.3072 49.0071 69.6376 48.2508 68.8795C46.8983 67.5237 45.8273 65.8857 45.1262 64.0484L45.1372 64.0429C43.7737 60.4791 43.9779 56.6995 45.4132 53.4677C46.8099 50.3189 49.3825 47.6903 52.8162 46.2903C52.9819 46.2073 53.153 46.1353 53.3407 46.0911C56.8186 44.8293 60.4897 45.0562 63.6364 46.4618C66.7776 47.8619 69.3998 50.4407 70.7965 53.8827C70.8793 54.0487 70.9511 54.2258 70.9953 54.4084C72.2319 57.8782 72.0055 61.5582 70.6033 64.7125Z" fill="#21552A"/>
<path d="M62.0354 69.6322C67.8485 67.3965 70.7467 60.861 68.5165 55.0339C66.2917 49.2067 59.772 46.3014 53.9589 48.5371C48.1513 50.7728 45.2475 57.3083 47.4778 63.1299C48.6206 66.1182 50.9778 68.4811 53.9589 69.6266L46.3682 89.4544C29.63 83.0186 21.272 64.2035 27.6979 47.4248C34.1182 30.6462 52.8934 22.2679 69.6316 28.7093C82.4171 33.6289 90.3169 45.7757 90.466 58.7194V59.3226C90.4384 63.1244 89.7428 66.9815 88.3075 70.7445C85.0117 79.3552 78.227 86.1563 69.6371 89.46L62.0354 69.6322Z" fill="#3FA652"/>
</g>
<defs>
<clipPath id="clip0_19_7">
<rect width="70" height="68" fill="white" transform="translate(23 24)"/>
</clipPath>
</defs>
</svg>
