<svg width="115" height="115" viewBox="0 0 115 115" fill="none" xmlns="http://www.w3.org/2000/svg">
<circle cx="57.5" cy="57.5" r="57.5" fill="#8BC34B"/>
<g clip-path="url(#clip0_19_6)">
<path d="M86.6582 34.2986V84.6909H23.1074V91.9998L90.3262 91.9998C92.3535 91.9998 94 90.3607 94 88.3425L94 34.2986H86.6582ZM70.1758 33.3653L70.7852 38.1135C70.9727 39.5776 72.3145 40.61 73.7852 40.4292C75.2559 40.2426 76.293 38.9068 76.1113 37.4427L74.5586 25.4148C74.4766 24.569 73.9902 23.7757 73.1934 23.3323C72.4668 22.9298 71.6406 22.9007 70.9199 23.1748L59.2832 27.6372C57.9004 28.168 57.2148 29.7138 57.748 31.0904C58.2813 32.467 59.834 33.1495 61.2168 32.6187L65.1895 31.0962C60.8359 36.976 55.6211 41.8875 49.9902 45.714C41.8809 51.2263 32.9395 54.4637 24.4961 55.0704C23.0137 55.1753 21.9004 56.4528 22.0059 57.9286C22.1113 59.4044 23.3945 60.5127 24.877 60.4077C34.2461 59.7485 44.125 56.1903 53.0195 50.1414C59.418 45.7957 65.3184 40.1492 70.1758 33.3653ZM26.3242 72.9664V79.5228H34.6504V72.9664H26.3242ZM41.207 66.0658V79.5228H49.5273V66.0658H41.207ZM56.084 61.3176V79.5228H64.4043V61.3176H56.084ZM70.9609 54.0846V79.5228H79.2871V54.0846H70.9609Z" fill="black"/>
</g>
<defs>
<clipPath id="clip0_19_6">
<rect width="72" height="69" fill="white" transform="matrix(-1 0 0 1 94 23)"/>
</clipPath>
</defs>
</svg>
